<svg width="163" height="32" viewBox="0 0 163 32" fill="none" xmlns="http://www.w3.org/2000/svg">
<path d="M0.431818 5.03409L0.943182 1.90909H22.7614L22.25 5.03409H13.1023L8.78409 31H5.26136L9.57955 5.03409H0.431818ZM28.7557 31.4545C26.7481 31.4545 25.0672 30.9763 23.7131 30.0199C22.3589 29.0634 21.4025 27.7235 20.8438 26C20.2945 24.2765 20.2045 22.2689 20.5739 19.9773C20.9337 17.7424 21.6487 15.7964 22.7188 14.1392C23.7983 12.4725 25.1383 11.1847 26.7386 10.2756C28.3485 9.35701 30.1193 8.89773 32.0511 8.89773C34.0587 8.89773 35.7348 9.38068 37.0795 10.3466C38.4337 11.303 39.3902 12.6477 39.9489 14.3807C40.5076 16.1042 40.6023 18.1212 40.233 20.4318C39.8731 22.6477 39.1487 24.5843 38.0597 26.2415C36.9801 27.8892 35.6402 29.1723 34.0398 30.0909C32.4489 31 30.6875 31.4545 28.7557 31.4545ZM28.8125 28.4432C30.3466 28.4432 31.6771 28.0502 32.804 27.2642C33.9403 26.4782 34.8589 25.4413 35.5597 24.1534C36.2699 22.8655 36.7481 21.4735 36.9943 19.9773C37.2216 18.5568 37.2121 17.2358 36.9659 16.0142C36.7197 14.7831 36.1941 13.7936 35.3892 13.0455C34.5843 12.2879 33.4527 11.9091 31.9943 11.9091C30.4602 11.9091 29.1203 12.3068 27.9744 13.1023C26.8381 13.8977 25.9195 14.9441 25.2188 16.2415C24.518 17.5388 24.0492 18.9356 23.8125 20.4318C23.5852 21.8523 23.59 23.1733 23.8267 24.3949C24.0729 25.607 24.5985 26.5871 25.4034 27.3352C26.2178 28.0739 27.3542 28.4432 28.8125 28.4432ZM53.1626 31H44.0717L48.9013 1.90909H58.1626C60.9846 1.90909 63.3094 2.50095 65.1371 3.68466C66.9742 4.86837 68.2526 6.55871 68.9723 8.75568C69.7015 10.9527 69.8104 13.5758 69.299 16.625C68.8066 19.6174 67.8501 22.1884 66.4297 24.3381C65.0187 26.4782 63.1911 28.1259 60.9467 29.2812C58.7119 30.4271 56.1172 31 53.1626 31ZM48.12 27.875H53.2763C55.6816 27.875 57.7554 27.4015 59.4979 26.4545C61.2498 25.5076 62.6607 24.1581 63.7308 22.4062C64.8104 20.6544 65.549 18.5758 65.9467 16.1705C66.3445 13.8598 66.3066 11.8759 65.8331 10.2188C65.3691 8.55208 64.4553 7.27367 63.0916 6.38352C61.7375 5.4839 59.924 5.03409 57.6513 5.03409H51.8984L48.12 27.875ZM81.3729 31.4545C79.3653 31.4545 77.6844 30.9763 76.3303 30.0199C74.9761 29.0634 74.0196 27.7235 73.4609 26C72.9117 24.2765 72.8217 22.2689 73.1911 19.9773C73.5509 17.7424 74.2659 15.7964 75.3359 14.1392C76.4155 12.4725 77.7554 11.1847 79.3558 10.2756C80.9657 9.35701 82.7365 8.89773 84.6683 8.89773C86.6759 8.89773 88.352 9.38068 89.6967 10.3466C91.0509 11.303 92.0073 12.6477 92.5661 14.3807C93.1248 16.1042 93.2195 18.1212 92.8501 20.4318C92.4903 22.6477 91.7659 24.5843 90.6768 26.2415C89.5973 27.8892 88.2573 29.1723 86.657 30.0909C85.0661 31 83.3047 31.4545 81.3729 31.4545ZM81.4297 28.4432C82.9638 28.4432 84.2943 28.0502 85.4212 27.2642C86.5575 26.4782 87.4761 25.4413 88.1768 24.1534C88.8871 22.8655 89.3653 21.4735 89.6115 19.9773C89.8388 18.5568 89.8293 17.2358 89.5831 16.0142C89.3369 14.7831 88.8113 13.7936 88.0064 13.0455C87.2015 12.2879 86.0698 11.9091 84.6115 11.9091C83.0774 11.9091 81.7375 12.3068 80.5916 13.1023C79.4553 13.8977 78.5367 14.9441 77.8359 16.2415C77.1352 17.5388 76.6664 18.9356 76.4297 20.4318C76.2024 21.8523 76.2071 23.1733 76.4439 24.3949C76.6901 25.607 77.2157 26.5871 78.0206 27.3352C78.835 28.0739 79.9714 28.4432 81.4297 28.4432ZM96.6889 31L101.518 1.90909H105.041L100.723 27.875H114.246L113.734 31H96.6889ZM118.734 31L122.371 9.18182H125.723L122.087 31H118.734ZM125.07 5.48864C124.416 5.48864 123.853 5.2661 123.379 4.82102C122.915 4.37595 122.683 3.84091 122.683 3.21591C122.683 2.59091 122.915 2.05587 123.379 1.6108C123.853 1.16572 124.416 0.94318 125.07 0.94318C125.723 0.94318 126.282 1.16572 126.746 1.6108C127.219 2.05587 127.456 2.59091 127.456 3.21591C127.456 3.84091 127.219 4.37595 126.746 4.82102C126.282 5.2661 125.723 5.48864 125.07 5.48864ZM146.522 14.0682L143.34 14.9205C143.227 14.4091 143.028 13.9167 142.744 13.4432C142.469 12.9602 142.043 12.5672 141.465 12.2642C140.897 11.9517 140.121 11.7955 139.136 11.7955C137.8 11.7955 136.64 12.1032 135.656 12.7188C134.671 13.3248 134.107 14.0966 133.965 15.0341C133.823 15.858 134.013 16.5161 134.533 17.0085C135.054 17.5009 135.925 17.9034 137.147 18.2159L140.272 19.0114C142.147 19.4943 143.482 20.2187 144.278 21.1847C145.083 22.1411 145.357 23.3864 145.102 24.9205C144.893 26.1705 144.349 27.2879 143.468 28.2727C142.587 29.2576 141.46 30.0341 140.087 30.6023C138.714 31.1705 137.185 31.4545 135.499 31.4545C133.255 31.4545 131.484 30.9716 130.187 30.0057C128.889 29.0303 128.198 27.6193 128.113 25.7727L131.465 24.9773C131.55 26.142 131.967 27.0227 132.715 27.6193C133.473 28.2064 134.533 28.5 135.897 28.5C137.46 28.5 138.762 28.1686 139.803 27.5057C140.845 26.8333 141.437 26.0284 141.579 25.0909C141.721 24.3239 141.569 23.6847 141.124 23.1733C140.689 22.6619 139.931 22.2784 138.852 22.0227L135.386 21.1705C133.454 20.6875 132.1 19.9489 131.323 18.9545C130.556 17.9602 130.3 16.7102 130.556 15.2045C130.764 13.9735 131.295 12.8845 132.147 11.9375C133.009 10.9905 134.088 10.2472 135.386 9.70739C136.692 9.16761 138.113 8.89773 139.647 8.89773C141.806 8.89773 143.421 9.37121 144.491 10.3182C145.561 11.2557 146.238 12.5057 146.522 14.0682ZM162.25 9.18182L161.795 12.0227H150.489L150.943 9.18182H162.25ZM155.091 3.95455H158.443L154.977 24.75C154.826 25.697 154.849 26.4072 155.048 26.8807C155.257 27.3447 155.569 27.6572 155.986 27.8182C156.412 27.9697 156.871 28.0455 157.364 28.0455C157.733 28.0455 158.036 28.0265 158.273 27.9886C158.509 27.9413 158.699 27.9034 158.841 27.875L159.068 30.8864C158.813 30.9716 158.467 31.0568 158.031 31.142C157.605 31.2367 157.08 31.2841 156.455 31.2841C155.508 31.2841 154.617 31.0805 153.784 30.6733C152.951 30.2661 152.312 29.6458 151.866 28.8125C151.421 27.9792 151.303 26.928 151.511 25.6591L155.091 3.95455Z" fill="#5498FF"/>
<path d="M0.431818 5.03409L-0.555056 4.8726L-0.745118 6.03409H0.431818V5.03409ZM0.943182 1.90909V0.90909H0.0935182L-0.0436927 1.7476L0.943182 1.90909ZM22.7614 1.90909L23.7482 2.07058L23.9383 0.90909H22.7614V1.90909ZM22.25 5.03409V6.03409H23.0997L23.2369 5.19558L22.25 5.03409ZM13.1023 5.03409V4.03409H12.2548L12.1158 4.87004L13.1023 5.03409ZM8.78409 31V32H9.63152L9.77054 31.164L8.78409 31ZM5.26136 31L4.27491 30.836L4.08133 32H5.26136V31ZM9.57955 5.03409L10.566 5.19814L10.7596 4.03409H9.57955V5.03409ZM1.41869 5.19558L1.93006 2.07058L-0.0436927 1.7476L-0.555056 4.8726L1.41869 5.19558ZM0.943182 2.90909H22.7614V0.90909H0.943182V2.90909ZM21.7745 1.7476L21.2631 4.8726L23.2369 5.19558L23.7482 2.07058L21.7745 1.7476ZM22.25 4.03409H13.1023V6.03409H22.25V4.03409ZM12.1158 4.87004L7.79764 30.836L9.77054 31.164L14.0887 5.19814L12.1158 4.87004ZM8.78409 30H5.26136V32H8.78409V30ZM6.24782 31.164L10.566 5.19814L8.59309 4.87004L4.27491 30.836L6.24782 31.164ZM9.57955 4.03409H0.431818V6.03409H9.57955V4.03409ZM20.8438 26L19.8909 26.3036L19.8925 26.3084L20.8438 26ZM20.5739 19.9773L21.5611 20.1364L21.5611 20.1362L20.5739 19.9773ZM22.7188 14.1392L21.8794 13.5956L21.8787 13.5967L22.7188 14.1392ZM26.7386 10.2756L27.2326 11.1451L27.2342 11.1441L26.7386 10.2756ZM37.0795 10.3466L36.4961 11.1588L36.5026 11.1634L37.0795 10.3466ZM39.9489 14.3807L38.9971 14.6875L38.9976 14.6891L39.9489 14.3807ZM40.233 20.4318L41.22 20.5921L41.2204 20.5897L40.233 20.4318ZM38.0597 26.2415L37.224 25.6923L37.2232 25.6935L38.0597 26.2415ZM34.0398 30.0909L34.5359 30.9592L34.5376 30.9582L34.0398 30.0909ZM32.804 27.2642L32.2351 26.4418L32.2319 26.444L32.804 27.2642ZM35.5597 24.1534L34.684 23.6705L34.6813 23.6755L35.5597 24.1534ZM36.9943 19.9773L37.9811 20.1396L37.9818 20.1353L36.9943 19.9773ZM36.9659 16.0142L35.9853 16.2103L35.9856 16.2118L36.9659 16.0142ZM35.3892 13.0455L34.7038 13.7737L34.7084 13.7779L35.3892 13.0455ZM27.9744 13.1023L27.4042 12.2808L27.401 12.283L27.9744 13.1023ZM25.2188 16.2415L24.3389 15.7662L24.3389 15.7662L25.2188 16.2415ZM23.8125 20.4318L24.7999 20.5898L24.8002 20.5881L23.8125 20.4318ZM23.8267 24.3949L22.8449 24.5852L22.8467 24.5939L23.8267 24.3949ZM25.4034 27.3352L24.7226 28.0678L24.7316 28.0759L25.4034 27.3352ZM28.7557 30.4545C26.9103 30.4545 25.4424 30.017 24.29 29.2031L23.1362 30.8367C24.692 31.9356 26.5859 32.4545 28.7557 32.4545V30.4545ZM24.29 29.2031C23.1288 28.3829 22.2937 27.2298 21.795 25.6916L19.8925 26.3084C20.5113 28.2172 21.589 29.744 23.1362 30.8367L24.29 29.2031ZM21.7965 25.6964C21.3065 24.1585 21.2099 22.3157 21.5611 20.1364L19.5866 19.8182C19.1992 22.2221 19.2826 24.3945 19.891 26.3036L21.7965 25.6964ZM21.5611 20.1362C21.9022 18.018 22.5741 16.2067 23.5588 14.6817L21.8787 13.5967C20.7232 15.3861 19.9652 17.4669 19.5866 19.8183L21.5611 20.1362ZM23.5581 14.6829C24.5574 13.1401 25.7827 11.9687 27.2326 11.1451L26.2447 9.40606C24.4939 10.4006 23.0392 11.805 21.8794 13.5956L23.5581 14.6829ZM27.2342 11.1441C28.6866 10.3154 30.2855 9.89773 32.0511 9.89773V7.89773C29.9532 7.89773 28.0104 8.3986 26.243 9.40701L27.2342 11.1441ZM32.0511 9.89773C33.8948 9.89773 35.3549 10.339 36.4961 11.1588L37.6629 9.5344C36.1148 8.42232 34.2227 7.89773 32.0511 7.89773V9.89773ZM36.5026 11.1634C37.6624 11.9825 38.4979 13.1393 38.9971 14.6875L40.9006 14.0738C40.2824 12.1562 39.205 10.6235 37.6565 9.52978L36.5026 11.1634ZM38.9976 14.6891C39.4955 16.2248 39.5969 18.0754 39.2455 20.274L41.2204 20.5897C41.6076 18.167 41.5197 15.9835 40.9001 14.0723L38.9976 14.6891ZM39.2459 20.2715C38.9056 22.3669 38.2261 24.1672 37.224 25.6923L38.8954 26.7907C40.0712 25.0013 40.8406 22.9285 41.22 20.5921L39.2459 20.2715ZM37.2232 25.6935C36.2239 27.2187 34.9968 28.3886 33.542 29.2236L34.5376 30.9582C36.2835 29.9561 37.7363 28.5597 38.8961 26.7895L37.2232 25.6935ZM33.5436 29.2227C32.1121 30.0407 30.5233 30.4545 28.7557 30.4545V32.4545C30.8517 32.4545 32.7856 31.9593 34.5359 30.9592L33.5436 29.2227ZM28.8125 29.4432C30.5263 29.4432 32.0621 29.0009 33.3761 28.0844L32.2319 26.444C31.2921 27.0995 30.1669 27.4432 28.8125 27.4432V29.4432ZM33.3728 28.0866C34.6458 27.2062 35.6672 26.0481 36.438 24.6314L34.6813 23.6755C34.0506 24.8345 33.2349 25.7502 32.2351 26.4418L33.3728 28.0866ZM36.4353 24.6363C37.2023 23.2456 37.7169 21.7447 37.981 20.1396L36.0076 19.8149C35.7793 21.2023 35.3375 22.4855 34.684 23.6705L36.4353 24.6363ZM37.9818 20.1353C38.225 18.6148 38.2194 17.1719 37.9462 15.8166L35.9856 16.2118C36.2049 17.2996 36.2181 18.4989 36.0069 19.8193L37.9818 20.1353ZM37.9465 15.8181C37.6652 14.4117 37.05 13.2238 36.07 12.313L34.7084 13.7779C35.3383 14.3634 35.7742 15.1546 35.9853 16.2103L37.9465 15.8181ZM36.0746 12.3173C35.0311 11.3352 33.6238 10.9091 31.9943 10.9091V12.9091C33.2815 12.9091 34.1374 13.2406 34.7038 13.7737L36.0746 12.3173ZM31.9943 10.9091C30.2777 10.9091 28.7341 11.3575 27.4042 12.2808L28.5447 13.9237C29.5064 13.2561 30.6428 12.9091 31.9943 12.9091V10.9091ZM27.401 12.283C26.1291 13.1733 25.1088 14.3408 24.3389 15.7662L26.0986 16.7167C26.7302 15.5475 27.547 14.6221 28.5479 13.9215L27.401 12.283ZM24.3389 15.7662C23.5829 17.1658 23.0787 18.6708 22.8248 20.2755L24.8002 20.5881C25.0198 19.2004 25.453 17.9119 26.0986 16.7167L24.3389 15.7662ZM22.8251 20.2738C22.5821 21.7921 22.5828 23.2323 22.845 24.5851L24.8084 24.2046C24.5971 23.1143 24.5883 21.9125 24.7999 20.5898L22.8251 20.2738ZM22.8467 24.5939C23.1291 25.984 23.7458 27.1599 24.7226 28.0677L26.0842 26.6027C25.4511 26.0144 25.0168 25.2301 24.8067 24.1958L22.8467 24.5939ZM24.7316 28.0759C25.7832 29.0297 27.1885 29.4432 28.8125 29.4432V27.4432C27.5198 27.4432 26.6524 27.118 26.0752 26.5945L24.7316 28.0759ZM44.0717 31L43.0852 30.8362L42.892 32H44.0717V31ZM48.9013 1.90909V0.90909H48.0536L47.9148 1.74532L48.9013 1.90909ZM65.1371 3.68466L64.5935 4.524L64.5954 4.52527L65.1371 3.68466ZM68.9723 8.75568L68.022 9.06699L68.0232 9.07068L68.9723 8.75568ZM69.299 16.625L68.3128 16.4596L68.3123 16.4626L69.299 16.625ZM66.4297 24.3381L65.5954 23.7868L65.5948 23.7876L66.4297 24.3381ZM60.9467 29.2812L61.403 30.1711L61.4044 30.1704L60.9467 29.2812ZM48.12 27.875L47.1334 27.7118L46.941 28.875H48.12V27.875ZM59.4979 26.4545L59.0224 25.5748L59.0204 25.5759L59.4979 26.4545ZM63.7308 22.4062L62.8795 21.8816L62.8774 21.885L63.7308 22.4062ZM65.9467 16.1705L64.9612 16.0008L64.9601 16.0073L65.9467 16.1705ZM65.8331 10.2188L64.8697 10.487L64.8716 10.4935L65.8331 10.2188ZM63.0916 6.38352L62.5382 7.21649L62.545 7.2209L63.0916 6.38352ZM51.8984 5.03409V4.03409H51.0503L50.9118 4.87089L51.8984 5.03409ZM53.1626 30H44.0717V32H53.1626V30ZM45.0582 31.1638L49.8878 2.07286L47.9148 1.74532L43.0852 30.8362L45.0582 31.1638ZM48.9013 2.90909H58.1626V0.90909H48.9013V2.90909ZM58.1626 2.90909C60.848 2.90909 62.9693 3.47207 64.5935 4.52399L65.6807 2.84532C63.6496 1.52982 61.1212 0.90909 58.1626 0.90909V2.90909ZM64.5954 4.52527C66.2279 5.57714 67.3693 7.07453 68.022 9.06699L69.9226 8.44437C69.1359 6.04289 67.7205 4.1596 65.6787 2.84404L64.5954 4.52527ZM68.0232 9.07068C68.6867 11.0698 68.8059 13.5194 68.3128 16.4596L70.2852 16.7904C70.8149 13.6322 70.7162 10.8355 69.9214 8.44068L68.0232 9.07068ZM68.3123 16.4626C67.8387 19.3404 66.9257 21.7736 65.5954 23.7868L67.264 24.8894C68.7746 22.6033 69.7745 19.8944 70.2857 16.7874L68.3123 16.4626ZM65.5948 23.7876C64.2768 25.7867 62.5782 27.3167 60.489 28.3921L61.4044 30.1704C63.8039 28.9352 65.7606 27.1697 67.2646 24.8885L65.5948 23.7876ZM60.4905 28.3914C58.4197 29.4531 55.9864 30 53.1626 30V32C56.2479 32 59.004 31.4011 61.403 30.1711L60.4905 28.3914ZM48.12 28.875H53.2763V26.875H48.12V28.875ZM53.2763 28.875C55.8131 28.875 58.0583 28.3751 59.9754 27.3332L59.0204 25.5759C57.4526 26.428 55.55 26.875 53.2763 26.875V28.875ZM59.9734 27.3343C61.8856 26.3006 63.425 24.8253 64.5842 22.9275L62.8774 21.885C61.8965 23.491 60.6139 24.7145 59.0224 25.5748L59.9734 27.3343ZM64.5822 22.9309C65.7412 21.05 66.5183 18.8438 66.9333 16.3336L64.9601 16.0073C64.5797 18.3077 63.8795 20.2587 62.8795 21.8816L64.5822 22.9309ZM66.9322 16.3401C67.3468 13.932 67.3215 11.788 66.7946 9.94403L64.8716 10.4935C65.2917 11.9639 65.3422 13.7877 64.9612 16.0008L66.9322 16.3401ZM66.7965 9.95054C66.2717 8.06572 65.2187 6.57784 63.6382 5.54614L62.545 7.2209C63.6918 7.96951 64.4665 9.03845 64.8697 10.487L66.7965 9.95054ZM63.645 5.55058C62.0736 4.50665 60.0454 4.03409 57.6513 4.03409V6.03409C59.8026 6.03409 61.4013 6.46115 62.5383 7.21647L63.645 5.55058ZM57.6513 4.03409H51.8984V6.03409H57.6513V4.03409ZM50.9118 4.87089L47.1334 27.7118L49.1066 28.0382L52.885 5.19729L50.9118 4.87089ZM73.4609 26L72.5081 26.3036L72.5097 26.3084L73.4609 26ZM73.1911 19.9773L74.1783 20.1364L74.1783 20.1362L73.1911 19.9773ZM75.3359 14.1392L74.4966 13.5956L74.4959 13.5967L75.3359 14.1392ZM79.3558 10.2756L79.8497 11.1451L79.8514 11.1441L79.3558 10.2756ZM89.6967 10.3466L89.1133 11.1588L89.1198 11.1634L89.6967 10.3466ZM92.5661 14.3807L91.6143 14.6875L91.6148 14.6891L92.5661 14.3807ZM92.8501 20.4318L93.8372 20.5921L93.8376 20.5897L92.8501 20.4318ZM90.6768 26.2415L89.8411 25.6923L89.8404 25.6935L90.6768 26.2415ZM86.657 30.0909L87.1531 30.9592L87.1548 30.9582L86.657 30.0909ZM85.4212 27.2642L84.8523 26.4418L84.8491 26.444L85.4212 27.2642ZM88.1768 24.1534L87.3012 23.6705L87.2985 23.6755L88.1768 24.1534ZM89.6115 19.9773L90.5982 20.1396L90.5989 20.1353L89.6115 19.9773ZM89.5831 16.0142L88.6025 16.2103L88.6028 16.2118L89.5831 16.0142ZM88.0064 13.0455L87.321 13.7737L87.3256 13.7779L88.0064 13.0455ZM80.5916 13.1023L80.0213 12.2808L80.0182 12.283L80.5916 13.1023ZM77.8359 16.2415L76.9561 15.7662L76.9561 15.7662L77.8359 16.2415ZM76.4297 20.4318L77.4171 20.5898L77.4174 20.5881L76.4297 20.4318ZM76.4439 24.3949L75.4621 24.5852L75.4639 24.5939L76.4439 24.3949ZM78.0206 27.3352L77.3398 28.0678L77.3488 28.0759L78.0206 27.3352ZM81.3729 30.4545C79.5275 30.4545 78.0596 30.017 76.9072 29.2031L75.7533 30.8367C77.3092 31.9356 79.2031 32.4545 81.3729 32.4545V30.4545ZM76.9072 29.2031C75.746 28.3829 74.9108 27.2298 74.4122 25.6916L72.5097 26.3084C73.1285 28.2172 74.2062 29.744 75.7533 30.8367L76.9072 29.2031ZM74.4137 25.6964C73.9236 24.1585 73.8271 22.3157 74.1783 20.1364L72.2038 19.8182C71.8164 22.2221 71.8997 24.3945 72.5081 26.3036L74.4137 25.6964ZM74.1783 20.1362C74.5194 18.018 75.1913 16.2067 76.176 14.6817L74.4959 13.5967C73.3404 15.3861 72.5824 17.4669 72.2038 19.8183L74.1783 20.1362ZM76.1753 14.6829C77.1746 13.1401 78.3998 11.9687 79.8497 11.1451L78.8619 9.40606C77.111 10.4006 75.6564 11.805 74.4966 13.5956L76.1753 14.6829ZM79.8514 11.1441C81.3038 10.3154 82.9027 9.89773 84.6683 9.89773V7.89773C82.5703 7.89773 80.6276 8.3986 78.8602 9.40701L79.8514 11.1441ZM84.6683 9.89773C86.5119 9.89773 87.9721 10.339 89.1133 11.1588L90.2801 9.5344C88.7319 8.42232 86.8399 7.89773 84.6683 7.89773V9.89773ZM89.1198 11.1634C90.2796 11.9825 91.1151 13.1393 91.6143 14.6875L93.5178 14.0738C92.8995 12.1562 91.8222 10.6235 90.2736 9.52978L89.1198 11.1634ZM91.6148 14.6891C92.1126 16.2248 92.2141 18.0754 91.8627 20.274L93.8376 20.5897C94.2248 18.167 94.1369 15.9835 93.5173 14.0723L91.6148 14.6891ZM91.8631 20.2715C91.5228 22.3669 90.8433 24.1672 89.8411 25.6923L91.5126 26.7907C92.6884 25.0013 93.4578 22.9285 93.8372 20.5921L91.8631 20.2715ZM89.8404 25.6935C88.8411 27.2187 87.614 28.3886 86.1592 29.2236L87.1548 30.9582C88.9007 29.9561 90.3535 28.5597 91.5133 26.7895L89.8404 25.6935ZM86.1608 29.2227C84.7293 30.0407 83.1405 30.4545 81.3729 30.4545V32.4545C83.4689 32.4545 85.4028 31.9593 87.1531 30.9592L86.1608 29.2227ZM81.4297 29.4432C83.1435 29.4432 84.6792 29.0009 85.9932 28.0844L84.8491 26.444C83.9093 27.0995 82.784 27.4432 81.4297 27.4432V29.4432ZM85.99 28.0866C87.2629 27.2062 88.2844 26.0481 89.0552 24.6314L87.2985 23.6755C86.6678 24.8345 85.8521 25.7502 84.8523 26.4418L85.99 28.0866ZM89.0525 24.6363C89.8195 23.2456 90.3341 21.7447 90.5982 20.1396L88.6248 19.8149C88.3965 21.2023 87.9547 22.4855 87.3012 23.6705L89.0525 24.6363ZM90.5989 20.1353C90.8422 18.6148 90.8365 17.1719 90.5634 15.8166L88.6028 16.2118C88.8221 17.2996 88.8353 18.4989 88.6241 19.8193L90.5989 20.1353ZM90.5637 15.8181C90.2824 14.4117 89.6671 13.2238 88.6872 12.313L87.3256 13.7779C87.9555 14.3634 88.3914 15.1546 88.6025 16.2103L90.5637 15.8181ZM88.6918 12.3173C87.6483 11.3352 86.241 10.9091 84.6115 10.9091V12.9091C85.8987 12.9091 86.7546 13.2406 87.321 13.7737L88.6918 12.3173ZM84.6115 10.9091C82.8949 10.9091 81.3513 11.3575 80.0214 12.2808L81.1619 13.9237C82.1236 13.2561 83.26 12.9091 84.6115 12.9091V10.9091ZM80.0182 12.283C78.7463 13.1733 77.726 14.3408 76.9561 15.7662L78.7158 16.7167C79.3474 15.5475 80.1642 14.6221 81.1651 13.9215L80.0182 12.283ZM76.9561 15.7662C76.2001 17.1658 75.6959 18.6708 75.442 20.2755L77.4174 20.5881C77.637 19.2004 78.0702 17.9119 78.7158 16.7167L76.9561 15.7662ZM75.4422 20.2738C75.1993 21.7921 75.2 23.2323 75.4622 24.5851L77.4256 24.2046C77.2143 23.1143 77.2055 21.9125 77.4171 20.5898L75.4422 20.2738ZM75.4639 24.5939C75.7463 25.984 76.363 27.1599 77.3398 28.0677L78.7014 26.6027C78.0683 26.0144 77.634 25.2301 77.4239 24.1958L75.4639 24.5939ZM77.3488 28.0759C78.4004 29.0297 79.8057 29.4432 81.4297 29.4432V27.4432C80.137 27.4432 79.2696 27.118 78.6924 26.5945L77.3488 28.0759ZM96.6889 31L95.7024 30.8362L95.5092 32H96.6889V31ZM101.518 1.90909V0.90909H100.671L100.532 1.74532L101.518 1.90909ZM105.041 1.90909L106.028 2.07314L106.221 0.90909H105.041V1.90909ZM100.723 27.875L99.7366 27.711L99.543 28.875H100.723V27.875ZM114.246 27.875L115.233 28.0365L115.423 26.875H114.246V27.875ZM113.734 31V32H114.584L114.721 31.1615L113.734 31ZM97.6754 31.1638L102.505 2.07286L100.532 1.74532L95.7024 30.8362L97.6754 31.1638ZM101.518 2.90909H105.041V0.90909H101.518V2.90909ZM104.055 1.74504L99.7366 27.711L101.709 28.039L106.028 2.07314L104.055 1.74504ZM100.723 28.875H114.246V26.875H100.723V28.875ZM113.259 27.7135L112.748 30.8385L114.721 31.1615L115.233 28.0365L113.259 27.7135ZM113.734 30H96.6889V32H113.734V30ZM118.734 31L117.748 30.8356L117.554 32H118.734V31ZM122.371 9.18182V8.18182H121.524L121.384 9.01742L122.371 9.18182ZM125.723 9.18182L126.709 9.34622L126.903 8.18182H125.723V9.18182ZM122.087 31V32H122.934L123.073 31.1644L122.087 31ZM123.379 4.82102L122.687 5.54274L122.694 5.54965L123.379 4.82102ZM123.379 1.6108L122.694 0.882131L122.687 0.889113L123.379 1.6108ZM126.746 1.6108L126.053 2.33251L126.061 2.33942L126.746 1.6108ZM126.746 4.82102L126.061 4.09236L126.054 4.09934L126.746 4.82102ZM119.721 31.1644L123.357 9.34622L121.384 9.01742L117.748 30.8356L119.721 31.1644ZM122.371 10.1818H125.723V8.18182H122.371V10.1818ZM124.737 9.01742L121.1 30.8356L123.073 31.1644L126.709 9.34622L124.737 9.01742ZM122.087 30H118.734V32H122.087V30ZM125.07 4.48864C124.669 4.48864 124.351 4.36208 124.064 4.09239L122.694 5.54965C123.354 6.17012 124.163 6.48864 125.07 6.48864V4.48864ZM124.071 4.09934C123.798 3.83675 123.683 3.55977 123.683 3.21591H121.683C121.683 4.12205 122.033 4.91514 122.687 5.5427L124.071 4.09934ZM123.683 3.21591C123.683 2.87205 123.798 2.59507 124.071 2.33248L122.687 0.889113C122.033 1.51667 121.683 2.30977 121.683 3.21591H123.683ZM124.064 2.33942C124.351 2.06974 124.669 1.94318 125.07 1.94318V-0.0568199C124.163 -0.0568199 123.354 0.261701 122.694 0.882168L124.064 2.33942ZM125.07 1.94318C125.47 1.94318 125.779 2.06921 126.054 2.33248L127.438 0.889114C126.784 0.26223 125.976 -0.0568199 125.07 -0.0568199V1.94318ZM126.061 2.33942C126.342 2.60396 126.456 2.87897 126.456 3.21591H128.456C128.456 2.30284 128.096 1.50778 127.431 0.882167L126.061 2.33942ZM126.456 3.21591C126.456 3.55284 126.342 3.82786 126.061 4.0924L127.431 5.54965C128.096 4.92404 128.456 4.12897 128.456 3.21591H126.456ZM126.054 4.09934C125.779 4.36261 125.47 4.48864 125.07 4.48864V6.48864C125.976 6.48864 126.784 6.16959 127.438 5.5427L126.054 4.09934ZM146.522 14.0682L146.781 15.0341L147.671 14.7958L147.506 13.8893L146.522 14.0682ZM143.34 14.9205L142.364 15.1374L142.59 16.1565L143.599 15.8864L143.34 14.9205ZM142.744 13.4432L141.874 13.9375L141.88 13.9476L141.886 13.9577L142.744 13.4432ZM141.465 12.2642L140.983 13.1404L140.992 13.1452L141.001 13.1498L141.465 12.2642ZM135.656 12.7188L136.18 13.5704L136.186 13.5667L135.656 12.7188ZM133.965 15.0341L134.951 15.204L134.952 15.194L134.954 15.1839L133.965 15.0341ZM134.533 17.0085L133.846 17.7352L133.846 17.7352L134.533 17.0085ZM137.147 18.2159L136.899 19.1847L136.9 19.185L137.147 18.2159ZM140.272 19.0114L140.521 18.043L140.519 18.0423L140.272 19.0114ZM144.278 21.1847L143.506 21.8204L143.513 21.8286L144.278 21.1847ZM145.102 24.9205L144.115 24.7561L144.115 24.7561L145.102 24.9205ZM140.087 30.6023L140.47 31.5263L140.47 31.5263L140.087 30.6023ZM130.187 30.0057L129.586 30.805L129.59 30.8078L130.187 30.0057ZM128.113 25.7727L127.882 24.7997L127.076 24.9911L127.114 25.8188L128.113 25.7727ZM131.465 24.9773L132.463 24.9043L132.377 23.7332L131.234 24.0043L131.465 24.9773ZM132.715 27.6193L132.092 28.4012L132.103 28.4097L132.715 27.6193ZM139.803 27.5057L140.34 28.3494L140.346 28.3459L139.803 27.5057ZM141.579 25.0909L140.596 24.9088L140.593 24.9249L140.59 24.9411L141.579 25.0909ZM141.124 23.1733L140.363 23.8218L140.37 23.8298L141.124 23.1733ZM138.852 22.0227L138.613 22.9938L138.621 22.9958L138.852 22.0227ZM135.386 21.1705L135.143 22.1406L135.147 22.1415L135.386 21.1705ZM131.323 18.9545L130.531 19.5654L130.535 19.57L131.323 18.9545ZM130.556 15.2045L131.542 15.372L131.542 15.3714L130.556 15.2045ZM132.147 11.9375L131.407 11.2644L131.404 11.2685L132.147 11.9375ZM135.386 9.70739L135.004 8.78312L135.002 8.78411L135.386 9.70739ZM144.491 10.3182L143.828 11.0671L143.832 11.0703L144.491 10.3182ZM146.263 13.1022L143.081 13.9545L143.599 15.8864L146.781 15.0341L146.263 13.1022ZM144.316 14.7035C144.178 14.0817 143.937 13.4893 143.601 12.9287L141.886 13.9577C142.118 14.344 142.275 14.7365 142.364 15.1374L144.316 14.7035ZM143.613 12.9489C143.228 12.2722 142.647 11.7549 141.93 11.3787L141.001 13.1498C141.439 13.3796 141.71 13.6482 141.874 13.9375L143.613 12.9489ZM141.947 11.388C141.174 10.9628 140.209 10.7955 139.136 10.7955V12.7955C140.032 12.7955 140.62 12.9406 140.983 13.1404L141.947 11.388ZM139.136 10.7955C137.642 10.7955 136.292 11.1417 135.126 11.8708L136.186 13.5667C136.989 13.0647 137.959 12.7955 139.136 12.7955V10.7955ZM135.131 11.8671C133.956 12.5903 133.172 13.5925 132.976 14.8843L134.954 15.1839C135.042 14.6006 135.385 14.0593 136.18 13.5704L135.131 11.8671ZM132.98 14.8642C132.792 15.9543 133.039 16.9716 133.846 17.7352L135.22 16.2819C134.986 16.0606 134.855 15.7616 134.951 15.204L132.98 14.8642ZM133.846 17.7352C134.552 18.4023 135.621 18.8577 136.899 19.1847L137.395 17.2471C136.23 16.9491 135.556 16.5996 135.22 16.2819L133.846 17.7352ZM136.9 19.185L140.025 19.9805L140.519 18.0423L137.394 17.2468L136.9 19.185ZM140.023 19.9798C141.798 20.437 142.9 21.0853 143.506 21.8204L145.05 20.549C144.064 19.3522 142.496 18.5517 140.521 18.043L140.023 19.9798ZM143.513 21.8286C144.084 22.5077 144.335 23.4342 144.115 24.7561L146.088 25.0849C146.379 23.3385 146.081 21.7745 145.043 20.5408L143.513 21.8286ZM144.115 24.7561C143.939 25.811 143.483 26.7562 142.723 27.6061L144.213 28.9393C145.215 27.8196 145.847 26.5299 146.088 25.0849L144.115 24.7561ZM142.723 27.6061C141.954 28.4657 140.957 29.1603 139.705 29.6783L140.47 31.5263C141.964 30.9079 143.221 30.0494 144.213 28.9393L142.723 27.6061ZM139.705 29.6783C138.468 30.19 137.071 30.4545 135.499 30.4545V32.4545C137.299 32.4545 138.96 32.1509 140.47 31.5263L139.705 29.6783ZM135.499 30.4545C133.389 30.4545 131.853 29.9996 130.784 29.2036L129.59 30.8078C131.115 31.9436 133.121 32.4545 135.499 32.4545V30.4545ZM130.788 29.2064C129.764 28.4364 129.185 27.3218 129.112 25.7266L127.114 25.8188C127.211 27.9168 128.015 29.6242 129.586 30.805L130.788 29.2064ZM128.344 26.7457L131.696 25.9503L131.234 24.0043L127.882 24.7997L128.344 26.7457ZM130.468 25.0502C130.569 26.427 131.079 27.5933 132.092 28.4012L133.339 26.8375C132.855 26.4522 132.532 25.8571 132.463 24.9043L130.468 25.0502ZM132.103 28.4097C133.096 29.1797 134.403 29.5 135.897 29.5V27.5C134.664 27.5 133.849 27.2332 133.328 26.8289L132.103 28.4097ZM135.897 29.5C137.6 29.5 139.1 29.1383 140.34 28.3493L139.266 26.662C138.423 27.1989 137.319 27.5 135.897 27.5V29.5ZM140.346 28.3459C141.55 27.5688 142.37 26.5427 142.568 25.2407L140.59 24.9411C140.503 25.5141 140.14 26.0979 139.261 26.6655L140.346 28.3459ZM142.562 25.273C142.75 24.257 142.556 23.2946 141.879 22.5168L140.37 23.8298C140.583 24.0748 140.692 24.3907 140.596 24.9088L142.562 25.273ZM141.886 22.5248C141.248 21.7765 140.246 21.3252 139.082 21.0496L138.621 22.9958C139.617 23.2316 140.129 23.5474 140.363 23.8218L141.886 22.5248ZM139.09 21.0517L135.624 20.1994L135.147 22.1415L138.613 22.9938L139.09 21.0517ZM135.628 20.2003C133.796 19.7422 132.691 19.0817 132.111 18.339L130.535 19.57C131.508 20.816 133.112 21.6328 135.143 22.1406L135.628 20.2003ZM132.115 18.3437C131.554 17.6171 131.322 16.6667 131.542 15.372L129.57 15.0371C129.279 16.7537 129.558 18.3033 130.531 19.5653L132.115 18.3437ZM131.542 15.3714C131.718 14.3313 132.162 13.4155 132.89 12.6065L131.404 11.2685C130.427 12.3534 129.811 13.6156 129.57 15.0377L131.542 15.3714ZM132.887 12.6105C133.64 11.7822 134.594 11.1197 135.77 10.6307L135.002 8.78411C133.582 9.37466 132.377 10.1988 131.407 11.2645L132.887 12.6105ZM135.767 10.6316C136.943 10.146 138.233 9.89773 139.647 9.89773V7.89773C137.993 7.89773 136.442 8.18924 135.004 8.78312L135.767 10.6316ZM139.647 9.89773C141.683 9.89773 143.015 10.3472 143.828 11.0671L145.153 9.56931C143.827 8.39526 141.929 7.89773 139.647 7.89773V9.89773ZM143.832 11.0703C144.712 11.8416 145.29 12.8795 145.538 14.2471L147.506 13.8893C147.186 12.1319 146.41 10.6698 145.15 9.56602L143.832 11.0703ZM162.25 9.18182L163.237 9.33981L163.423 8.18182H162.25V9.18182ZM161.795 12.0227V13.0227H162.648L162.783 12.1807L161.795 12.0227ZM150.489 12.0227L149.501 11.8647L149.316 13.0227H150.489V12.0227ZM150.943 9.18182V8.18182H150.09L149.956 9.02383L150.943 9.18182ZM155.091 3.95455V2.95455H154.242L154.104 3.79182L155.091 3.95455ZM158.443 3.95455L159.43 4.11894L159.624 2.95455H158.443V3.95455ZM154.977 24.75L153.991 24.5856L153.99 24.592L154.977 24.75ZM155.048 26.8807L154.126 27.2679L154.131 27.2792L154.136 27.2903L155.048 26.8807ZM155.986 27.8182L155.625 28.751L155.638 28.7559L155.651 28.7604L155.986 27.8182ZM158.273 27.9886L158.431 28.9761L158.45 28.973L158.469 28.9692L158.273 27.9886ZM158.841 27.875L159.838 27.7997L159.753 26.6728L158.645 26.8944L158.841 27.875ZM159.068 30.8864L159.384 31.835L160.124 31.5885L160.065 30.8111L159.068 30.8864ZM158.031 31.142L157.839 30.1607L157.827 30.1631L157.814 30.1659L158.031 31.142ZM153.784 30.6733L154.223 29.7748L154.223 29.7748L153.784 30.6733ZM151.866 28.8125L152.749 28.3414L152.749 28.3414L151.866 28.8125ZM151.511 25.6591L150.525 25.4964L150.525 25.4971L151.511 25.6591ZM161.263 9.02383L160.808 11.8647L162.783 12.1807L163.237 9.33981L161.263 9.02383ZM161.795 11.0227H150.489V13.0227H161.795V11.0227ZM151.476 12.1807L151.931 9.33981L149.956 9.02383L149.501 11.8647L151.476 12.1807ZM150.943 10.1818H162.25V8.18182H150.943V10.1818ZM155.091 4.95455H158.443V2.95455H155.091V4.95455ZM157.457 3.79015L153.991 24.5856L155.964 24.9144L159.43 4.11894L157.457 3.79015ZM153.99 24.592C153.831 25.5876 153.816 26.5289 154.126 27.2679L155.97 26.4934C155.883 26.2854 155.821 25.8063 155.965 24.908L153.99 24.592ZM154.136 27.2903C154.436 27.9584 154.928 28.4817 155.625 28.751L156.346 26.8854C156.21 26.8327 156.077 26.731 155.961 26.4711L154.136 27.2903ZM155.651 28.7604C156.194 28.9534 156.767 29.0455 157.364 29.0455V27.0455C156.975 27.0455 156.63 26.986 156.321 26.876L155.651 28.7604ZM157.364 29.0455C157.761 29.0455 158.122 29.0255 158.431 28.9761L158.115 27.0012C157.95 27.0275 157.705 27.0455 157.364 27.0455V29.0455ZM158.469 28.9692C158.706 28.9219 158.895 28.884 159.037 28.8556L158.645 26.8944C158.503 26.9228 158.313 26.9607 158.077 27.0081L158.469 28.9692ZM157.844 27.9503L158.071 30.9616L160.065 30.8111L159.838 27.7997L157.844 27.9503ZM158.752 29.9377C158.554 30.0035 158.256 30.0791 157.839 30.1607L158.223 32.1234C158.678 32.0345 159.071 31.9397 159.384 31.835L158.752 29.9377ZM157.814 30.1659C157.483 30.2396 157.035 30.2841 156.455 30.2841V32.2841C157.124 32.2841 157.728 32.2339 158.248 32.1182L157.814 30.1659ZM156.455 30.2841C155.656 30.2841 154.917 30.1138 154.223 29.7748L153.345 31.5718C154.318 32.0472 155.359 32.2841 156.455 32.2841V30.2841ZM154.223 29.7748C153.582 29.4618 153.097 28.9929 152.749 28.3414L150.984 29.2836C151.527 30.2987 152.319 31.0704 153.345 31.5718L154.223 29.7748ZM152.749 28.3414C152.439 27.7612 152.313 26.9506 152.498 25.8211L150.525 25.4971C150.293 26.9055 150.404 28.1971 150.984 29.2836L152.749 28.3414ZM152.498 25.8218L156.078 4.11727L154.104 3.79182L150.525 25.4964L152.498 25.8218Z" fill="#5498FF"/>
</svg>
