<svg width="46" height="41" viewBox="0 0 46 41" fill="none" xmlns="http://www.w3.org/2000/svg">
<path d="M28 10.6034C28 16.4596 23.299 21.2069 17.5 21.2069C11.701 21.2069 7 16.4596 7 10.6034C7 4.74733 11.701 0 17.5 0C23.299 0 28 4.74733 28 10.6034Z" fill="#5498FF"/>
<path d="M35 41C35 36.313 33.1563 31.8179 29.8744 28.5037C26.5925 25.1895 22.1413 23.3276 17.5 23.3276C12.8587 23.3276 8.40752 25.1895 5.12563 28.5037C1.84375 31.8179 7.00815e-07 36.313 0 41L35 41Z" fill="#5498FF"/>
<path d="M37 21L41 25L45 21" stroke="#5498FF"/>
</svg>
